<?xml version="1.0" encoding="UTF-8" standalone="no"?>
<!-- Created with Inkscape (http://www.inkscape.org/) -->

<svg
   width="170"
   height="170"
   viewBox="0 0 44.979167 44.979167"
   version="1.1"
   id="svg5"
   xml:space="preserve"
   inkscape:version="1.2.2 (b0a8486541, 2022-12-01)"
   sodipodi:docname="p24fa-logo-dark-inkscape.svg"
   xmlns:inkscape="http://www.inkscape.org/namespaces/inkscape"
   xmlns:sodipodi="http://sodipodi.sourceforge.net/DTD/sodipodi-0.dtd"
   xmlns:xlink="http://www.w3.org/1999/xlink"
   xmlns="http://www.w3.org/2000/svg"
   xmlns:svg="http://www.w3.org/2000/svg"><sodipodi:namedview
     id="namedview7"
     pagecolor="#ffffff"
     bordercolor="#000000"
     borderopacity="0.25"
     inkscape:showpageshadow="2"
     inkscape:pageopacity="0.0"
     inkscape:pagecheckerboard="0"
     inkscape:deskcolor="#d1d1d1"
     inkscape:document-units="mm"
     showgrid="false"
     inkscape:zoom="1.0532399"
     inkscape:cx="-34.180247"
     inkscape:cy="-10.443964"
     inkscape:window-width="2560"
     inkscape:window-height="1403"
     inkscape:window-x="1920"
     inkscape:window-y="0"
     inkscape:window-maximized="1"
     inkscape:current-layer="layer2" /><defs
     id="defs2"><linearGradient
       id="linearGradient26250"
       inkscape:swatch="solid"><stop
         style="stop-color:#28292a;stop-opacity:1;"
         offset="0"
         id="stop26248" /></linearGradient><linearGradient
       inkscape:collect="always"
       id="linearGradient33592"><stop
         style="stop-color:#919191;stop-opacity:1;"
         offset="0.24693961"
         id="stop33588" /><stop
         style="stop-color:#b9b7b7;stop-opacity:1;"
         offset="1"
         id="stop33590" /></linearGradient><linearGradient
       inkscape:collect="always"
       id="linearGradient21744"><stop
         style="stop-color:#919191;stop-opacity:1;"
         offset="0.22157221"
         id="stop21740" /><stop
         style="stop-color:#b9b7b7;stop-opacity:1;"
         offset="1"
         id="stop21742" /></linearGradient><linearGradient
       inkscape:collect="always"
       id="linearGradient16093"><stop
         style="stop-color:#6893e0;stop-opacity:1;"
         offset="0"
         id="stop16089" /><stop
         style="stop-color:#496aae;stop-opacity:1;"
         offset="1"
         id="stop16091" /></linearGradient><linearGradient
       inkscape:collect="always"
       id="linearGradient8263"><stop
         style="stop-color:#f5d04b;stop-opacity:1;"
         offset="0"
         id="stop8259" /><stop
         style="stop-color:#54471e;stop-opacity:1;"
         offset="1"
         id="stop8261" /></linearGradient><pattern
       patternUnits="userSpaceOnUse"
       width="71.656364"
       height="149.3365"
       patternTransform="translate(6.1428261,22.22074)"
       id="pattern1063"><path
         style="fill:none;stroke:#000000;stroke-width:9.31653;stroke-dasharray:none;stroke-opacity:1;stop-color:#000000"
         d="m 2.5814978,3.8775412 c 0,0 43.3753372,28.8774078 58.3311352,60.1993768 8.485849,17.771932 5.61947,85.061322 5.61947,85.061322"
         id="path288"
         sodipodi:nodetypes="csc" /></pattern><pattern
       patternUnits="userSpaceOnUse"
       width="71.656364"
       height="149.3365"
       patternTransform="translate(6.1428261,22.22074)"
       id="pattern1063-6"><path
         style="fill:none;stroke:#000000;stroke-width:9.31653;stroke-dasharray:none;stroke-opacity:1;stop-color:#000000"
         d="m 2.5814978,3.8775412 c 0,0 43.3753372,28.8774078 58.3311352,60.1993768 8.485849,17.771932 5.61947,85.061322 5.61947,85.061322"
         id="path288-7"
         sodipodi:nodetypes="csc" /></pattern><pattern
       patternUnits="userSpaceOnUse"
       width="40.678558"
       height="13.760107"
       patternTransform="translate(64.669127,73.472779)"
       id="pattern3609"><path
         style="fill:none;stroke:#000000;stroke-width:5.53701;stroke-dasharray:none;stroke-opacity:1;stop-color:#000000"
         d="m 38.326113,12.204295 c -7.69175,-12.39629451 -27.403748,-12.70595498 -36.0361205,0"
         id="path2146"
         sodipodi:nodetypes="cc" /></pattern><linearGradient
       inkscape:collect="always"
       xlink:href="#linearGradient8263"
       id="linearGradient8265"
       x1="22.480629"
       y1="21.085129"
       x2="22.526077"
       y2="44.847523"
       gradientUnits="userSpaceOnUse" /><linearGradient
       inkscape:collect="always"
       xlink:href="#linearGradient16093"
       id="linearGradient16095"
       x1="22.577717"
       y1="-0.0054357932"
       x2="22.438974"
       y2="19.607769"
       gradientUnits="userSpaceOnUse" /><radialGradient
       inkscape:collect="always"
       xlink:href="#linearGradient33592"
       id="radialGradient40392"
       cx="28.715452"
       cy="25.41279"
       fx="28.715452"
       fy="25.41279"
       r="9.1083679"
       gradientTransform="matrix(0.45454857,2.0911363,-1.7525452,0.38094913,59.922976,-46.57152)"
       gradientUnits="userSpaceOnUse" /><radialGradient
       inkscape:collect="always"
       xlink:href="#linearGradient21744"
       id="radialGradient40759"
       cx="16.117809"
       cy="24.754013"
       fx="16.117809"
       fy="24.754013"
       r="9.1088886"
       gradientTransform="matrix(-1.7075869,-0.41307487,0.51057873,-2.1106526,31.001497,81.487786)"
       gradientUnits="userSpaceOnUse" /></defs><g
     inkscape:label="Layer 1"
     inkscape:groupmode="layer"
     id="layer1"
     transform="translate(-86.488013,-119.17223)"
     style="display:inline" /><g
     inkscape:groupmode="layer"
     id="layer2"
     inkscape:label="Layer 2"><path
       style="display:inline;fill:url(#linearGradient8265);stroke-width:0.264496;-inkscape-stroke:none;stop-color:#000000;fill-opacity:1"
       d="m 22.407418,20.91862 c -1.276934,0.03063 -2.558788,0.512569 -3.509347,1.465027 0.01822,0.03756 0.03733,0.07504 0.05529,0.112654 0.703236,1.47279 1.042335,3.514681 1.292944,5.901966 0.250612,2.387285 0.365942,5.081964 0.411862,7.623307 0.07138,3.950112 -0.02642,7.466712 -0.07441,8.869226 a 22.489584,22.489584 0 0 0 1.905826,0.08837 22.489584,22.489584 0 0 0 1.906861,-0.08837 c -0.04799,-1.402513 -0.145797,-4.919118 -0.07441,-8.869226 0.04592,-2.54134 0.161767,-5.236026 0.412378,-7.623307 0.250609,-2.387282 0.589713,-4.429179 1.292944,-5.901966 0.02117,-0.04433 0.04358,-0.08855 0.06511,-0.132808 -0.942031,-0.988226 -2.310549,-1.477841 -3.685046,-1.444873 z"
       id="path5119" /><path
       style="display:inline;fill:url(#radialGradient40392);stroke-width:0.264496;-inkscape-stroke:none;stop-color:#000000;fill-opacity:1"
       d="m 41.014551,9.7430745 c -1.064414,0.8043775 -2.406,1.8643965 -3.862297,3.1398605 -3.301026,2.891127 -7.057887,6.817389 -8.900232,10.675834 -0.419365,0.878284 -0.82795,2.823992 -1.066601,5.097363 -0.238653,2.273371 -0.353296,4.911007 -0.398426,7.408333 -0.06548,3.623944 0.01523,6.921869 0.0646,8.472351 A 22.489584,22.489584 0 0 0 44.979167,22.489583 22.489584,22.489584 0 0 0 41.014551,9.7430745 Z"
       id="path5117" /><path
       style="display:inline;fill:url(#radialGradient40759);stroke-width:0.264496;-inkscape-stroke:none;stop-color:#000000;fill-opacity:1"
       d="M 3.9651326,9.7430745 A 22.489584,22.489584 0 0 0 0,22.489583 22.489584,22.489584 0 0 0 18.128609,44.537333 c 0.04937,-1.550286 0.130092,-4.84856 0.0646,-8.472868 -0.04513,-2.497329 -0.161839,-5.13496 -0.400493,-7.408333 -0.238653,-2.273373 -0.64465,-4.219079 -1.064017,-5.097363 C 14.886341,19.700322 11.128994,15.774065 7.827946,12.882935 6.37172,11.607539 5.0299454,10.547439 3.9651326,9.7430745 Z"
       id="path5115" /><path
       id="path232"
       style="display:inline;fill:url(#linearGradient16095);stroke-width:0.264496;-inkscape-stroke:none;stop-color:#000000;fill-opacity:1"
       d="M 22.489583 0 A 22.489584 22.489584 0 0 0 5.4818359 7.7995239 C 6.5846066 8.6337562 7.9623108 9.7233166 9.4511027 11.027234 C 12.498951 13.696606 15.968934 17.187816 18.187004 21.043677 C 19.425782 19.963072 21.014265 19.430714 22.585701 19.43964 C 24.126892 19.44844 25.649906 19.978126 26.809216 21.016288 C 29.027591 17.171294 32.486936 13.690281 35.527547 11.027234 C 37.016819 9.7228907 38.39491 8.6339499 39.497847 7.8000407 A 22.489584 22.489584 0 0 0 22.489583 0 z M 19.17144 5.2177694 C 19.65656 5.225722 20.093817 5.329008 20.483504 5.527828 C 20.873191 5.7266478 21.179633 6.0050435 21.402311 6.3629191 C 21.62499 6.7207948 21.736141 7.1344555 21.736141 7.6036702 C 21.736141 7.7786317 21.71648 7.9576742 21.676713 8.1405884 C 21.6449 8.3235026 21.584874 8.5143434 21.497396 8.7131632 C 21.417868 8.911983 21.31065 9.1224878 21.175452 9.345166 C 21.048207 9.5598914 20.889345 9.7905771 20.698478 10.037113 C 20.515564 10.275697 20.304542 10.526046 20.065959 10.788489 L 18.838127 12.124841 L 22.082373 12.124841 L 22.082373 13.735079 L 16.571082 13.735079 L 16.177307 12.756844 L 18.646407 10.025228 C 18.781604 9.8820777 18.924735 9.7148335 19.075838 9.5239665 C 19.234894 9.3330995 19.38589 9.1383259 19.529041 8.939506 C 19.680143 8.7327334 19.799677 8.534027 19.887158 8.34316 C 19.974639 8.1443402 20.018416 7.9652977 20.018416 7.8062419 C 20.018416 7.6233276 19.978572 7.4644659 19.899044 7.3292684 C 19.819516 7.1861181 19.704432 7.0744498 19.553328 6.9949219 C 19.402225 6.915394 19.215317 6.8760661 18.992639 6.8760661 C 18.785866 6.8760661 18.591093 6.9316419 18.408179 7.042981 C 18.225264 7.1463673 18.054088 7.3012963 17.895032 7.5080688 C 17.735976 7.7148414 17.596778 7.9651909 17.477486 8.2594442 L 16.141134 7.5080688 C 16.300189 7.0468069 16.526942 6.6454613 16.821195 6.3034912 C 17.115449 5.9615212 17.465668 5.6949238 17.871261 5.5040568 C 18.276853 5.3131898 18.710177 5.2177694 19.17144 5.2177694 z M 26.507943 5.3371419 L 27.93938 5.3371419 L 27.93938 10.323401 L 29.323275 10.323401 L 29.323275 11.838554 L 27.93938 11.838554 L 27.93938 13.735079 L 26.20977 13.735079 L 26.20977 11.838554 L 23.03632 11.838554 L 22.29683 10.430888 L 26.507943 5.3371419 z M 26.20977 8.0527384 L 24.354069 10.323401 L 26.20977 10.323401 L 26.20977 8.0527384 z " /></g></svg>
